<?xml version="1.0" encoding="utf-8"?>
<!-- Generator: Adobe Illustrator 18.1.1, SVG Export Plug-In . SVG Version: 6.00 Build 0)  -->
<svg version="1.1" id="Capa_1" xmlns="http://www.w3.org/2000/svg" xmlns:xlink="http://www.w3.org/1999/xlink" x="0px" y="0px"
	 viewBox="0 0 100 100" enable-background="new 0 0 100 100" xml:space="preserve">
<g>
	<g>
		<path fill="#146BA7" d="M25.6,28.2c0,14.5,11.8,26.3,26.3,26.3V1.9C37.3,1.9,25.6,13.7,25.6,28.2z"/>
	</g>
	<g>
		<path fill="#155E91" d="M78.1,28.2c0-14.5-11.8-26.3-26.3-26.3v52.6C66.4,54.5,78.1,42.7,78.1,28.2z"/>
	</g>
</g>
<path d="M51.9,0.2c-15.4,0-27.9,12.5-27.9,27.9s12.5,27.9,27.9,27.9s27.9-12.5,27.9-27.9S67.3,0.2,51.9,0.2z M51.9,52.8
	c-13.6,0-24.6-11.1-24.6-24.6c0-13.6,11.1-24.6,24.6-24.6c13.6,0,24.6,11.1,24.6,24.6C76.5,41.8,65.4,52.8,51.9,52.8z"/>
<g>
	<g>
		<polygon fill="#146BA7" points="31.8,54.5 15.1,54.5 15.1,98.1 53,98.1 53,70.9 		"/>
	</g>
	<g>
		<polygon fill="#155E91" points="90.9,54.5 71.9,54.5 53,70.9 53,98.1 90.9,98.1 		"/>
	</g>
</g>
<path d="M90.9,53h-19c-0.4,0-0.8,0.1-1.1,0.3L52.9,68.8L32.8,53.3c-0.3-0.2-0.6-0.3-1-0.3H15.1c-0.9,0-2.1,0.6-2.1,1.5v43.6
	c0,0.9,1.2,1.9,2.1,1.9h75.8c0.9,0,2.1-1,2.1-1.9V54.5C93,53.6,91.8,53,90.9,53z M89,56v40H17V56h14.3L52,72.1
	c0.6,0.5,1.5,0.4,2.1-0.1l18.4-16H89z"/>
<g>
	<g>
		<g>
			<path fill="#FFFFFF" d="M34.8,13.5c0,0,0.1-0.1,0.3-0.3c0.2-0.2,0.5-0.4,0.9-0.7c0.8-0.6,2.1-1.3,3.6-2.1c0.8-0.4,1.7-0.7,2.6-1
				c0.9-0.3,2-0.6,3-0.9c0.5-0.1,1.1-0.2,1.6-0.3c0.3,0,0.6-0.1,0.8-0.1c0.3,0,0.6-0.1,0.9-0.1C49.2,8,49.8,8,50.4,7.9
				c0.6,0,1.2,0,1.8,0c0.6,0,1.2,0,1.8,0.1c0.3,0,0.6,0,0.9,0.1c0.3,0,0.6,0.1,0.9,0.1c0.3,0,0.6,0.1,0.9,0.1
				c0.3,0.1,0.6,0.1,0.8,0.2c0.3,0.1,0.6,0.1,0.8,0.2c0.3,0.1,0.5,0.1,0.8,0.2c0.3,0.1,0.5,0.1,0.8,0.2c0.3,0.1,0.5,0.2,0.8,0.2
				c0.2,0.1,0.5,0.2,0.7,0.2c0.2,0.1,0.5,0.2,0.7,0.3c0.9,0.4,1.8,0.8,2.6,1.2c0.4,0.2,0.7,0.4,1.1,0.6c0.3,0.2,0.7,0.4,1,0.6
				c0.6,0.4,1.1,0.7,1.5,1c0.4,0.3,0.7,0.6,0.9,0.7c0.2,0.2,0.3,0.3,0.3,0.3s-0.1-0.1-0.4-0.2c-0.2-0.1-0.6-0.2-1.1-0.4
				c-0.1,0-0.2-0.1-0.4-0.2c-0.1,0-0.3-0.1-0.4-0.1c-0.3-0.1-0.6-0.2-0.9-0.3c-0.2-0.1-0.3-0.1-0.5-0.2c-0.2-0.1-0.3-0.1-0.5-0.2
				c-0.4-0.1-0.7-0.3-1.1-0.4c-0.8-0.2-1.7-0.5-2.6-0.8c-0.2-0.1-0.5-0.1-0.7-0.2c-0.2-0.1-0.5-0.1-0.7-0.2
				c-0.2-0.1-0.5-0.1-0.7-0.2c-0.2-0.1-0.5-0.1-0.8-0.1c-0.3,0-0.5-0.1-0.8-0.1c-0.3,0-0.5-0.1-0.8-0.1c-0.3,0-0.5-0.1-0.8-0.1
				c-0.3,0-0.5-0.1-0.8-0.1c-0.3,0-0.5-0.1-0.8-0.1c-0.3,0-0.5,0-0.8-0.1c-0.5,0-1.1,0-1.6-0.1c-0.5,0-1.1,0-1.6,0
				c-0.5,0-1.1,0-1.6,0.1c-1.1,0.1-2.1,0.2-3.2,0.3c-1,0.2-2,0.3-2.9,0.5c-0.9,0.2-1.8,0.4-2.6,0.6c-1.6,0.4-3,0.9-3.9,1.2
				c-0.5,0.2-0.8,0.3-1.1,0.4C34.9,13.5,34.8,13.5,34.8,13.5z"/>
		</g>
	</g>
</g>
</svg>
