<?xml version="1.0" encoding="utf-8"?>
<!-- Generator: Adobe Illustrator 18.1.1, SVG Export Plug-In . SVG Version: 6.00 Build 0)  -->
<svg version="1.1" id="Capa_1" xmlns="http://www.w3.org/2000/svg" xmlns:xlink="http://www.w3.org/1999/xlink" x="0px" y="0px"
	 viewBox="0 0 100 100" enable-background="new 0 0 100 100" xml:space="preserve">
<path fill="#146BA7" d="M40.8,47.5c0-1.7-1.4-3.1-3.1-3.1c-1.7,0-3.1,1.4-3.1,3.1v2.8h6.1L40.8,47.5z"/>
<rect x="32.5" y="53.7" fill="#146BA7" width="10.3" height="6.3"/>
<g>
	<path fill="none" d="M43.6,19.5c0.9-0.4,1.3-1.2,1.2-2c-0.2-1.4-1.5-2-2.8-1.4C33.8,20,25.3,22.9,16.6,25c-1.2,0.3-1.7,0.9-1.7,2.1
		c0,5.4,0,10.9,0,16.3c0,2.4,0.2,4.8,0.4,7.2c0.1,1.2,1,2,2.1,1.8c1.2-0.2,1.8-1.1,1.7-2.3c-0.2-1.5-0.3-3.1-0.3-4.6
		c0-5.6,0-11.2,0-16.8v-0.3c0.2-0.1,0.3-0.1,0.4-0.1c5.6-1.4,11-3.1,16.4-5.2C38.2,21.9,40.9,20.7,43.6,19.5z"/>
	<path fill="none" d="M46.2,50.5h-0.4l0-2.9c0-3.5-2.8-6.3-6.3-6.3c-3.5,0-6.3,2.8-6.3,6.3v2.9h-0.5c-0.9,0-1.6,0.7-1.6,1.6v9.5
		c0,0.9,0.7,1.6,1.6,1.6h13.5c0.9,0,1.6-0.7,1.6-1.6v-9.5C47.9,51.2,47.1,50.5,46.2,50.5z"/>
	<path fill="#146BA7" d="M48.6,1.9C43.9,4.8,39.1,7.3,34,9.5c-8.4,3.6-17.1,6.3-26.2,7.8c-1,0.2-1.7,0.6-2,1.6v27
		c0.1,0.8,0.1,1.5,0.2,2.3c0.9,11.6,4.9,21.9,12.2,30.9c7.8,9.6,17.7,15.9,29.7,19.1c0.2,0,0.3,0.1,0.5,0.2H50V1.5
		C49.6,1.5,49.1,1.6,48.6,1.9z M19.1,28.3c-0.1,0-0.2,0.1-0.4,0.1v0.3c0,5.6,0,11.2,0,16.8c0,1.5,0.2,3.1,0.3,4.6
		c0.1,1.2-0.5,2.1-1.7,2.3c-1.1,0.1-2-0.7-2.1-1.8c-0.2-2.4-0.3-4.8-0.4-7.2c-0.1-5.4,0-10.9,0-16.3c0-1.2,0.5-1.8,1.7-2.1
		c8.8-2.1,17.2-5,25.4-8.9c1.3-0.6,2.6,0,2.8,1.4c0.1,0.8-0.3,1.6-1.2,2c-2.7,1.2-5.4,2.4-8.1,3.5C30.1,25.2,24.7,26.9,19.1,28.3z
		 M46,61.6c0,0.9-0.7,1.6-1.6,1.6H30.9c-0.9,0-1.6-0.7-1.6-1.6v-9.5c0-0.9,0.7-1.6,1.6-1.6h0.5v-2.9c0-3.5,2.8-6.3,6.3-6.3
		c3.5,0,6.3,2.8,6.3,6.3l0,2.9h0.4c0.9,0,1.6,0.7,1.6,1.6V61.6z"/>
	<path fill="#155E91" d="M52.6,98.1c18.4-4.8,33.1-18.8,38.9-37c1.5-4.8,2.5-9.8,2.6-14.8c0.1-9,0-18,0-26.9c0-1-0.6-1.7-1.6-1.9
		c-1.8-0.3-3.5-0.7-5.3-1C74.5,13.5,62.6,8.7,51.4,1.9c-0.5-0.3-1-0.5-1.4-0.5v96.9h1.6C51.9,98.3,52.3,98.2,52.6,98.1z M82.3,44.5
		c0-2.5,0-4.9,0-7.4c0-3.4,0-6.8,0-10.2c0-1.2,0.8-2,2-1.9c0.8,0,1.6,0.7,1.7,1.5c0,0.2,0.1,0.5,0.1,0.7c0,5.8,0,11.6,0,17.4
		c0,18.8-11.2,35.4-27.4,42.9c-1.4,0.6-2.7,0-2.9-1.4c-0.1-0.8,0.3-1.5,1.2-2c1.9-1.1,4-2,5.8-3.3c10-6.7,16.2-16,18.7-27.8
		C82.1,50.2,82.3,47.4,82.3,44.5z M54.2,54.3c0.5-0.6,1.5-0.7,2.1-0.2l5,4.3L71,46.7c0.5-0.6,1.4-0.7,2.1-0.2
		c0.6,0.5,0.7,1.4,0.2,2.1L62.6,61.4c-0.3,0.3-0.6,0.5-1,0.5c0,0-0.1,0-0.1,0c-0.3,0-0.7-0.1-1-0.4l-6.2-5.3
		C53.8,55.8,53.7,54.9,54.2,54.3z"/>
</g>
<path d="M95.6,27.1c0-2.6,0-5.2,0-7.8c0-1.7-1.1-3-2.8-3.3c-0.5-0.1-0.9-0.2-1.4-0.3c-1.3-0.2-2.6-0.5-3.8-0.8
	C75.1,12.2,63.1,7.4,52.2,0.7c-1.5-0.9-2.9-0.9-4.3,0C43.3,3.5,38.5,6,33.4,8.2c-8.3,3.6-17,6.2-25.8,7.7C6,16.2,4.9,17,4.4,18.4
	l-0.1,0.2V46l0.1,0.9c0,0.5,0.1,1,0.1,1.5C5.4,60.2,9.7,70.9,17,80.1c7.9,9.8,18.1,16.3,30.5,19.6c0.1,0,0.1,0,0.2,0.1
	c0.1,0,0.1,0.1,0.2,0.1l0.2,0.1h3.6l0.5-0.2c0.2-0.1,0.5-0.1,0.7-0.2c9.3-2.4,17.9-7.2,24.8-13.8c7-6.6,12.2-15,15.1-24.1
	c1.7-5.5,2.6-10.4,2.7-15.3C95.7,39.9,95.7,33.4,95.6,27.1z M75.8,83.5C69.2,89.8,61,94.3,52.2,96.6c-0.3,0.1-0.5,0.1-0.8,0.2
	l-0.1,0h-2.7c-0.1-0.1-0.3-0.1-0.4-0.1c-11.7-3.1-21.5-9.3-28.9-18.6c-7-8.7-11-18.8-11.9-30.1c0-0.5-0.1-1-0.1-1.5l-0.1-0.7V19.2
	c0.1-0.2,0.3-0.3,0.8-0.4c9-1.6,18-4.2,26.5-7.9C39.8,8.6,44.8,6,49.4,3.2c0.4-0.2,0.5-0.2,0.6-0.2c0.2,0,0.4,0.1,0.6,0.2
	C61.9,10,74.1,15,87,17.8c1.3,0.3,2.6,0.5,3.9,0.8c0.5,0.1,0.9,0.2,1.4,0.3c0.3,0.1,0.4,0.2,0.4,0.5c0,2.6,0,5.2,0,7.8
	c0,6.3,0,12.8,0,19.2c-0.1,4.5-0.9,9.2-2.5,14.4C87.4,69.3,82.4,77.2,75.8,83.5z"/>
</svg>
