<?xml version="1.0" encoding="utf-8"?>
<!-- Generator: Adobe Illustrator 16.0.0, SVG Export Plug-In . SVG Version: 6.00 Build 0)  -->
<!DOCTYPE svg PUBLIC "-//W3C//DTD SVG 1.1//EN" "http://www.w3.org/Graphics/SVG/1.1/DTD/svg11.dtd">
<svg version="1.1" id="Capa_1" xmlns="http://www.w3.org/2000/svg" xmlns:xlink="http://www.w3.org/1999/xlink" x="0px" y="0px"
	 width="100px" height="85.037px" viewBox="0 0 100 85.037" enable-background="new 0 0 100 85.037" xml:space="preserve">
<g>
	<g>
		<g>
			<polygon fill="#146BA7" points="2.001,6.238 2.001,72.112 14.302,83.036 49.338,83.036 49.338,6.238 			"/>
		</g>
	</g>
	<g>
		<g>
			<rect x="49.338" y="6.238" fill="#155E91" width="48.66" height="76.798"/>
		</g>
	</g>
</g>
<g>
	<g>
		<g>
			<polygon fill="#124F7B" points="2.001,72.112 14.303,72.112 14.303,83.036 			"/>
		</g>
	</g>
	<g>
		<g>
			<path d="M14.304,84.772c-0.417,0-0.83-0.15-1.154-0.438L0.848,73.411c-0.54-0.479-0.728-1.242-0.471-1.916
				c0.256-0.674,0.903-1.122,1.624-1.122h12.302c0.96,0,1.738,0.779,1.738,1.739v10.924c0,0.683-0.401,1.304-1.026,1.584
				C14.788,84.723,14.545,84.772,14.304,84.772z M6.576,73.849l5.989,5.318v-5.318H6.576z"/>
		</g>
	</g>
</g>
<g>
	<g>
		<g>
			<circle fill="#FFFFFF" cx="24.511" cy="16.997" r="4.138"/>
		</g>
	</g>
</g>
<g>
	<g>
		<g>
			<circle fill="#FFFFFF" cx="76.15" cy="16.997" r="4.138"/>
		</g>
	</g>
</g>
<g>
	<g>
		<g>
			<g>
				<path fill="#FFFFFF" d="M92.04,31.214H6.636c-0.959,0-1.738-0.778-1.738-1.738c0-0.959,0.779-1.738,1.738-1.738H92.04
					c0.96,0,1.738,0.778,1.738,1.738C93.778,30.436,93,31.214,92.04,31.214z"/>
			</g>
		</g>
	</g>
</g>
<g>
	<path fill="#FFFFFF" d="M87.453,42.134h-74.64c-0.959,0-1.737,0.778-1.737,1.738v14.395c0,0.959,0.778,1.738,1.737,1.738h12.609
		V72.66c0,0.96,0.777,1.739,1.738,1.739h60.293c0.96,0,1.738-0.778,1.738-1.739V58.267V43.872
		C89.191,42.913,88.413,42.134,87.453,42.134z M28.897,45.61h11.139v10.918H28.897V45.61z M54.651,56.528h-11.14V45.61h11.14V56.528
		z M43.512,60.004h11.14v10.918h-11.14V60.004z M58.127,60.004H69.76v10.918H58.127V60.004z M69.76,56.528H58.127V45.61H69.76
		V56.528z M14.552,56.528V45.61h10.871v10.918H14.552z M28.897,60.004h11.139v10.918H28.897V60.004z M85.716,70.922H73.236V60.004
		h12.479V70.922z M85.716,56.528H73.236V45.61h12.479V56.528z"/>
</g>
<g>
	<path fill="none" stroke="#1D1D1B" stroke-width="7" stroke-linecap="round" stroke-linejoin="round" stroke-miterlimit="10" d="
		M26.433,13.66"/>
</g>
<g>
	<path d="M70.629,8.238h-40.47c-1.105,0-2.001-0.896-2.001-2c0-1.106,0.896-2.001,2.001-2.001h40.47c1.104,0,2,0.895,2,2.001
		C72.629,7.343,71.733,8.238,70.629,8.238z"/>
</g>
<g>
	<path d="M97.998,85.037H14.303c-1.104,0-2-0.896-2-2.001V72.375H2.001C0.896,72.375,0,71.479,0,70.373V6.238
		c0-1.106,0.896-2.001,2.001-2.001h16.47c1.105,0,2.001,0.895,2.001,2.001c0,1.104-0.896,2-2.001,2H4.003v60.134h10.3
		c1.105,0,2.001,0.895,2.001,2v10.663h79.692V8.238H81.81c-1.105,0-2.001-0.896-2.001-2c0-1.106,0.896-2.001,2.001-2.001h16.188
		c1.105,0,2.002,0.895,2.002,2.001v76.798C100,84.141,99.104,85.037,97.998,85.037z"/>
</g>
<g>
	<path d="M76.151,17.355c-1.106,0-2.003-0.896-2.003-2.002V2.001C74.148,0.896,75.045,0,76.151,0c1.105,0,2.002,0.896,2.002,2.001
		v13.353C78.153,16.459,77.257,17.355,76.151,17.355z"/>
</g>
<g>
	<path d="M24.511,17.355c-1.105,0-2.001-0.896-2.001-2.002V2.001C22.51,0.896,23.406,0,24.511,0c1.105,0,2.001,0.896,2.001,2.001
		v13.353C26.512,16.459,25.617,17.355,24.511,17.355z"/>
</g>
</svg>
